<svg width="20" height="20" viewBox="0 0 20 20" fill="none" xmlns="http://www.w3.org/2000/svg">
<path d="M8.29501 1.84218C9.40634 1.60954 10.5673 1.6022 11.7041 1.83988C11.8516 2.80618 12.4207 3.69911 13.3331 4.22587C14.2454 4.75262 15.3033 4.79904 16.2138 4.44359C16.9882 5.30933 17.5623 6.31837 17.9164 7.39711C17.1543 8.00799 16.6664 8.94668 16.6664 9.99934C16.6664 11.0527 17.1549 11.9918 17.9178 12.6027C17.7417 13.1363 17.5087 13.6602 17.2166 14.166C16.9245 14.6719 16.5874 15.1356 16.2133 15.5549C15.3028 15.1997 14.2453 15.2463 13.3331 15.7728C12.4214 16.2992 11.8525 17.1912 11.7044 18.1566C10.5932 18.3892 9.43225 18.3965 8.29536 18.1588C8.1479 17.1926 7.57876 16.2996 6.66639 15.7728C5.75404 15.2461 4.69616 15.1997 3.7856 15.5552C3.01131 14.6894 2.43722 13.6803 2.08304 12.6016C2.8451 11.9908 3.33307 11.052 3.33307 9.99934C3.33307 8.94609 2.84454 8.0069 2.08171 7.39604C2.25778 6.86236 2.49079 6.33858 2.78285 5.8327C3.07493 5.32682 3.41203 4.86314 3.78618 4.44382C4.69661 4.79902 5.75423 4.75251 6.66639 4.22587C7.57804 3.69953 8.147 2.80759 8.29501 1.84218ZM9.99975 12.4993C11.3804 12.4993 12.4998 11.3801 12.4998 9.99934C12.4998 8.61868 11.3804 7.49937 9.99975 7.49937C8.619 7.49937 7.49973 8.61868 7.49973 9.99934C7.49973 11.3801 8.619 12.4993 9.99975 12.4993Z" fill="#374151"/>
</svg>
